# xmcd
#
# Track frame offsets:
#	150
#	13626
#	28697
#	48789
#	62550
#	74177
#	91511
#	103041
#	115412
#	129153
#	140363
#	154185
#	166661
#	182193
#	194920
#	210663
#	228033
#	240653
#	256936
#	270101
#
# Disc length: 3768 seconds
#
# Revision: 1
# Processed by: cddbd v1.4PL0 Copyright (c) Steve Scherf et al.
# Submitted via: audiograbber 1.81.02
#
DISCID=0a0eb614
DTITLE=Percy Sledge - When a Men loves a Woman
DYEAR=2002
DGENRE=
TTITLE0=When a Man loves a Woman
TTITLE1=Warm and Tender Love
TTITLE2=You send me
TTITLE3=Take Time To know her
TTITLE4=Tell it like it is
TTITLE5=Try a little Tenderness
TTITLE6=Dock of the Bay
TTITLE7=You´re all around me
TTITLE8=My special Prayer
TTITLE9=Baby help me
TTITLE10=I belive in you
TTITLE11=It Tears me up
TTITLE12=Bring it on Home to me
TTITLE13=Cover me
TTITLE14=Out of left Field
TTITLE15=If loving you is wrong
TTITLE16=Sudden Stop
TTITLE17=Just out of Reach
TTITLE18=I`ve been loving you too long
TTITLE19=The dark End of the Steet
EXTD=Delta Music 32216
EXTT0=
EXTT1=
EXTT2=
EXTT3=
EXTT4=
EXTT5=
EXTT6=
EXTT7=
EXTT8=
EXTT9=
EXTT10=
EXTT11=
EXTT12=
EXTT13=
EXTT14=
EXTT15=
EXTT16=
EXTT17=
EXTT18=
EXTT19=
PLAYORDER=
